<svg version="1.2" xmlns="http://www.w3.org/2000/svg" viewBox="0 0 860 860" width="860" height="860"><defs><linearGradient id="P" gradientUnits="userSpaceOnUse"/><linearGradient id="g1" x2="1" href="#P" gradientTransform="matrix(-0.382,636.114,-572.155,-0.343,430.241,217.389)"><stop stop-color="#212228"/><stop offset="1" stop-color="#16468f"/></linearGradient><linearGradient id="g2" x2="1" href="#P" gradientTransform="matrix(-1.832,-499.585,521.505,-1.912,431.808,813.074)"><stop stop-color="#dad7d3"/><stop offset="1" stop-color="#fff"/></linearGradient></defs><style>.a{fill:url(#g1)}.b{fill:#1f60af}.c{fill:#16468f}.d{fill:#f9b328}.e{fill:#083171}.f{fill:url(#g2)}.g{fill:#d97400}.h{fill:#181b20}</style><path class="a" d="m185.2 108.6c0.2-1.4 0.4-2.9 1-4.3 2.4-5.2 7.3-7.6 12.1-10 12-6.1 24.8-10.4 37.3-15.3l61.4-24.6 74.8-30.2c13.6-5.5 27.1-11.7 41-16.4 9-3.1 17-4.3 26.4-2.3 14.5 3.2 28.5 10 42.2 15.4l67.2 26.1 78.4 30.4c15.8 6 32.1 11.2 47.2 18.7 4.6 2.3 7.1 5.1 8.7 10 1 6.9 1.6 14.4-2.8 20.4-4.8 6.3-17.8 11.3-25.5 12.2q-0.4 0.1-0.8 0.1c1.3 15.7 1.7 31.9 1.8 47.7 8.8 3.9 13.3 10.2 16.7 19 5.9 15.5 11.6 47.4 4.5 62.9-0.9 1.9-2.1 3.8-3.6 5.2 1 6.6 15.5 23.7 19.7 30.5q7.2 11.7 13.3 24 6.1 12.2 11.2 24.9 3.6 9.2 6.7 18.5 3 9.3 5.6 18.8 2.6 9.5 4.6 19.1 2 9.6 3.6 19.3c3 18.5 4.1 43.1 11.3 60.2 5.7 13.8 17.6 25.7 26 38.1 16.8 25.1 52.2 86.6 30.5 114.9-4.7 6.1-12.5 10.7-20.2 11.6-14.6 1.7-28.3-5.6-40.2-13.4-8 61.7-33.6 113.8-83.4 152.2-58.7 45.2-134.1 58.5-206.4 61.5q-21.4 1.1-42.8 0.4c-5-0.1-10.2 0-15.2-0.5-3.4-0.2-6.7-0.4-10-0.7-10.6-0.2-21.7-2-32.2-3.4-54-7.1-107.3-23.2-151.7-55.6q-1.8-1.3-3.6-2.7-1.8-1.4-3.5-2.8-1.8-1.4-3.5-2.8-1.7-1.5-3.4-3-1.7-1.5-3.4-3-1.6-1.5-3.3-3.1-1.6-1.5-3.2-3.1-1.6-1.6-3.1-3.2-1.6-1.6-3.1-3.3-1.6-1.6-3.1-3.3-1.5-1.7-2.9-3.4-1.5-1.7-2.9-3.5-1.4-1.7-2.8-3.5-1.4-1.8-2.8-3.6-1.3-1.8-2.6-3.6-1.4-1.8-2.6-3.7-1.3-1.8-2.5-3.7-1.3-1.9-2.5-3.8-1.2-1.9-2.3-3.8-1.2-2-2.3-3.9-1.1-2-2.2-3.9-1.1-2-2.1-4-1.1-2-2.1-4-1-2-1.9-4.1-1-2-1.9-4.1-0.9-2-1.8-4.1-0.8-2.1-1.7-4.2-0.8-2.1-1.6-4.2-0.8-2.1-1.5-4.2-0.7-2.2-1.4-4.3-0.7-2.1-1.4-4.3-0.6-2.2-1.2-4.3c-3.5-12.3-5.7-24.5-7.7-37.1-5.9 3.9-11.8 8.1-18.4 10.8-9.4 3.8-20.1 4.6-29.5 0.5-8.2-3.6-14.5-10.6-17.6-18.9-11.3-30 23.5-86.8 39.8-111.4 7.1-10.7 17-21.7 21.8-33.8 3.8-9.6 4.9-20.1 6.4-30.3l4.2-27.1c5.4-33.1 14.7-64.8 28.8-95.3q8.3-18.4 19.1-35.5c14.8-23.2 41.4-55.1 64.3-69.9 4.7-3 9.4-5.1 14.6-7-5.6-12.7 1.4-52.1 3.9-66.4-4.3-2.4-9.6-3.7-14.3-5.4-12.3-4.3-44.1-14.1-51.4-24.3-3.8-5.3-3.1-11.6-2.2-17.8zm424 47.6c4.2 19.9 6.9 38.4 5.6 58.7 0.9 1.7 1.8 2.9 3.2 4.2 1.5-6.7 4.2-13.7 8-19.4 2.1-3.3 4.9-6.5 6.3-10.1 3.1-8.1 0.3-32.2 0.3-41.5-7.9 2.5-15.1 6.9-23.4 8.1z"/><path class="b" d="m185.2 108.6c0.2-1.4 0.4-2.9 1-4.3 2.4-5.2 7.3-7.6 12.1-10 12-6.1 24.8-10.4 37.3-15.3l61.4-24.6 74.8-30.2c13.6-5.5 27.1-11.7 41-16.4 9-3.1 17-4.3 26.4-2.3 14.5 3.2 28.5 10 42.2 15.4l67.2 26.1 78.4 30.4c15.8 6 32.1 11.2 47.2 18.7 4.6 2.3 7.1 5.1 8.7 10 1 6.9 1.6 14.4-2.8 20.4-4.8 6.3-17.8 11.3-25.5 12.2q-0.4 0.1-0.8 0.1c1.3 15.7 1.7 31.9 1.8 47.7 8.8 3.9 13.3 10.2 16.7 19 5.9 15.5 11.6 47.4 4.5 62.9-0.9 1.9-2.1 3.8-3.6 5.2-2.8 1.2-5.5 3.5-8.4 4.8-7.4 3.4-17.6 3.5-25.5 2.2-7.3-1.2-14.5-3.7-18.9-10-8.9-12.7-4.9-37.2-2.4-51.5 1.5-6.7 4.2-13.7 8-19.4 2.1-3.3 4.9-6.5 6.3-10.1 3.1-8.1 0.3-32.2 0.3-41.5-7.9 2.5-15.1 6.9-23.4 8.1-4.4 1.1-8.9 3.2-13.2 4.8l-25.5 9.6c-25.9 9.8-52 19.1-77.7 29.3-15 5.9-44.3 19.8-59.5 20-12.8 0.2-30.1-7.3-41.9-12.1-31.3-12.6-63.1-24-94.7-35.8-13.3-5-29.4-13-43-15.8q-0.3-0.1-0.6-0.1c-4.3-2.4-9.6-3.7-14.3-5.4-12.3-4.3-44.1-14.1-51.4-24.3-3.8-5.3-3.1-11.6-2.2-17.8z"/><path class="c" d="m614.8 134.3c-15.3-1.5-30.8-4.9-46-7.5-36.3-6.1-72.8-12.9-109.3-18-14.4-2-26.1 5-40.9-1-5.4-2.2-11.2-5.7-13.4-11.2-1.1-2.8-1.2-6 0.1-8.8 2.4-5.1 9.5-8.3 14.7-10 10.6-3.4 23.5-1.2 33.2 3.8 3.5 5.7 5 10.5 3.4 17.2q-0.3 1.3-0.7 2.6c11.8 2.9 24.6 2.9 36.6 4.3l81 9.7c12.8 1.4 27.6 1.4 39.7 5.8 6.2 2.2 10.6 5.8 14 11.4 2.9 4.7 4.6 10 5.4 15.5-7.9 2.5-15.1 6.9-23.4 8.1-4.4 1.1-8.9 3.2-13.2 4.8l-25.5 9.6c-25.9 9.8-52 19.1-77.7 29.3-15 5.9-44.3 19.8-59.5 20-12.8 0.2-30.1-7.3-41.9-12.1-31.3-12.6-63.1-24-94.7-35.8-13.3-5-29.4-13-43-15.8q-0.3-0.1-0.6-0.1c-4.3-2.4-9.6-3.7-14.3-5.4-12.3-4.3-44.1-14.1-51.4-24.3-3.8-5.3-3.1-11.6-2.2-17.8 2.1 0.5 3.4 1.8 5.2 2.9 7.8 5 16 8.2 24.7 11.3l138.3 51.4q19.9 7.7 39.8 15.6c8.4 3.4 16.8 7.1 25.5 9.7 7.5 2.2 11.2 2.7 18.8 1 9-2 17.8-5.8 26.4-9.1l40.4-14.9 68.9-25.5c14-5.2 28.5-9.5 41.6-16.7z"/><path class="d" d="m453.2 81.6l120.5 12.9 33.1 3.7c7.7 0.9 15.7 1.3 23.2 3.4 5.3 1.6 9.6 4.6 13.1 8.9 2.4 2.9 4.4 6.5 5.9 10 2.1 6 3.6 12 4.8 18.3 1.3 15.7 1.7 31.9 1.8 47.7 8.8 3.9 13.3 10.2 16.7 19 5.9 15.5 11.6 47.4 4.5 62.9-0.9 1.9-2.1 3.8-3.6 5.2-2.8 1.2-5.5 3.5-8.4 4.8-7.4 3.4-17.6 3.5-25.5 2.2-7.3-1.2-14.5-3.7-18.9-10-8.9-12.7-4.9-37.2-2.4-51.5 1.5-6.7 4.2-13.7 8-19.4 2.1-3.3 4.9-6.5 6.3-10.1 3.1-8.1 0.3-32.2 0.3-41.5-0.8-5.5-2.5-10.8-5.4-15.5-3.4-5.6-7.8-9.2-14-11.4-12.1-4.4-26.9-4.4-39.7-5.8l-81-9.7c-12-1.4-24.8-1.4-36.6-4.3q0.4-1.3 0.7-2.6c1.6-6.7 0.1-11.5-3.4-17.2z"/><path class="c" d="m682.9 106.1c1 6.9 1.6 14.4-2.8 20.4-4.8 6.3-17.8 11.3-25.5 12.2q-0.4 0.1-0.8 0.1c-1.2-6.3-2.7-12.3-4.8-18.3 7.1-2.7 14.6-4.2 21.8-7.3 3.8-1.6 7.9-4.9 10.7-6 0.8-0.3 0.9-0.5 1.4-1.1z"/><path class="e" d="m253.1 156.1q0.3 0 0.6 0.1c13.6 2.8 29.7 10.8 43 15.8 31.6 11.8 63.4 23.2 94.7 35.8 11.8 4.8 29.1 12.3 41.9 12.1 15.2-0.2 44.5-14.1 59.5-20 25.7-10.2 51.8-19.5 77.7-29.3l25.5-9.6c4.3-1.6 8.8-3.7 13.2-4.8 4.2 19.9 6.9 38.4 5.6 58.7-2.1 5-3.6 10.2-6.2 14.9-8.7 15.5-27.4 24.7-43.3 31-18.6 7.4-38.4 12.2-58.1 15.8-68.9 12.4-151 9.1-215.9-19-12.5-5.4-27.5-12.9-35.8-24.1-2.5-3.5-4-7.5-6.3-11-5.6-12.7 1.4-52.1 3.9-66.4z"/><path class="f" d="m459.9 448.6c0.7-24.6 3.3-55.1 14.3-77.3 4-8.2 9.6-15.6 15.7-22.3 19.4-21.2 45.6-35 74.6-36.1 31.4-1.3 63.3 14.5 85.8 35.6 37.4 35 47.4 90.8 40 139.7-2.5 16.6-8.6 32.5-8.8 49.5-0.2 15.9 3.7 31.8 6.4 47.4q3.4 18 4 36.3c1.6 44.5-12.3 87.8-43.1 120.5-50 53.3-134.2 70.5-204.4 72.4-78.8 2.2-167.5-12.6-226.8-68.8-41.7-39.5-52.4-95.2-45.3-150.1 2.5-19.2 8-38.2 8.2-57.7 0.1-13.7-4.3-26.6-7.2-39.9q-1.9-8.9-3-17.9-1.1-9-1.3-18.1c-1-39.2 11-79.9 38.6-108.7 21.6-22.6 53-39.1 84.7-39.7 28.1-0.5 55.1 12 75.1 31.3 8 7.7 15.1 16.5 20.1 26.5 10.5 20.9 13.7 52.3 14.1 75.8 15.6-5.6 41.9-6.1 57 1q0.7 0.3 1.3 0.6z"/><path class="d" d="m401.6 447c15.6-5.6 41.9-6.1 57 1q0.7 0.3 1.3 0.6c8.2 10.8 42.5 11.2 39.4 36.1q-0.1 0.7-0.2 1.3c0-1.3 0-2.5-0.4-3.8-3.1 2-4.9 5.7-7.8 8-9.2 7.1-22.9 10.6-34.3 12.5-24.2 3.9-57.9 1.4-79.6-10.4-4.7-2.6-7.9-6.9-12.3-9.9q-0.3-0.2-0.7-0.5l0.1-0.7c2.2-12.8 13.9-22.3 25-27.8 3.7-1.8 8.5-3.4 11.8-5.9q0.4-0.3 0.7-0.5z"/><path class="g" d="m364 481.9q0.4 0.3 0.8 0.5c4.3 3 7.5 7.3 12.2 9.9 21.7 11.8 55.4 14.3 79.6 10.4 11.4-1.9 25.1-5.4 34.3-12.5 2.9-2.3 4.7-6 7.8-8 0.4 1.3 0.4 2.5 0.4 3.8-1.8 7.4-5 13.7-10 19.4-12.5 14.3-32.9 21-51.3 22.2-21.7 1.3-44.6-5.1-60.8-19.8-8-7.1-12.4-15.1-13-25.9z"/><path class="h" d="m296.5 401.2c6.4-0.5 12.8 0.7 18.3 4.2 9 5.6 14.4 15.5 16.7 25.6 2.9 12.7 1.1 27.1-6.1 38.1-5.1 8-12.4 12.9-21.6 14.8-7 0.6-14-0.7-19.9-4.6-8.7-5.7-13.8-15.4-15.7-25.4-2.5-13-0.1-28.1 7.5-39.1 5.1-7.4 12-12 20.8-13.6z"/><path class="h" d="m558 401.2c6.9-0.4 13.4 1.2 19 5.2 9.2 6.6 14.5 17.8 16.2 28.7 2 12.5-0.2 26.6-7.9 36.9-5.2 7-12.2 10.6-20.7 11.9q-1.2 0.1-2.5 0.1-1.3 0-2.6-0.1-1.2-0.1-2.5-0.3-1.2-0.2-2.5-0.5-1.2-0.3-2.4-0.7-1.2-0.4-2.4-1-1.1-0.5-2.2-1.1-1.1-0.6-2.2-1.3c-9-6.1-14-16.7-15.9-27.1-2.3-12.8-0.1-26.8 7.5-37.5 5.1-7.3 12.3-11.8 21.1-13.2z"/></svg>
