<svg width="2833" height="851" viewBox="0 0 2833 851" fill="none" xmlns="http://www.w3.org/2000/svg">
<style>
  #text {
    fill: #004eb3;
  }
</style>
<path id="text" d="M1288.7 536.35C1293.47 536.35 1297.13 538.55 1299.7 542.95C1302.63 547.35 1304.1 553.4 1304.1 561.1C1304.1 575.4 1300.62 586.767 1293.65 595.2C1273.12 619.767 1253.13 637 1233.7 646.9C1214.63 656.8 1191.53 661.75 1164.4 661.75C1145.33 661.75 1127.73 659.367 1111.6 654.6C1095.47 649.833 1075.85 642.683 1052.75 633.15C1031.85 623.983 1011.68 616.467 992.25 610.6C973.55 644.7 945.5 661.75 908.1 661.75C887.567 661.75 871.25 657.167 859.15 648C846.683 638.467 840.45 626.367 840.45 611.7C840.45 593.733 849.067 578.883 866.3 567.15C883.533 555.05 906.45 549 935.05 549H942.2L952.1 388.95C954.3 352.283 960.9 322.033 971.9 298.2C982.9 274.367 998.117 254.017 1017.55 237.15C1034.42 222.483 1053.67 211.483 1075.3 204.15C1096.93 196.45 1119.85 192.6 1144.05 192.6C1183.65 192.6 1214.08 202.867 1235.35 223.4C1256.62 243.933 1267.25 270.7 1267.25 303.7C1267.25 326.067 1263.22 344.217 1255.15 358.15C1247.08 371.717 1235.9 378.5 1221.6 378.5C1211.33 378.5 1203.27 376.117 1197.4 371.35C1191.53 366.217 1188.6 359.067 1188.6 349.9C1188.6 346.6 1189.33 340.55 1190.8 331.75C1193 321.483 1194.1 312.317 1194.1 304.25C1194.1 288.85 1189.52 276.75 1180.35 267.95C1171.55 258.783 1157.98 254.2 1139.65 254.2C1107.38 254.2 1082.45 264.833 1064.85 286.1C1047.25 307 1036.07 340 1031.3 385.1L1018.65 509.95C1016.82 527.55 1014.43 542.767 1011.5 555.6C1034.97 559.633 1064.3 566.05 1099.5 574.85C1120.03 579.983 1135.8 583.65 1146.8 585.85C1157.8 588.05 1167.52 589.15 1175.95 589.15C1197.22 589.15 1215.37 585.667 1230.4 578.7C1245.8 571.367 1260.28 559.817 1273.85 544.05C1278.25 538.917 1283.2 536.35 1288.7 536.35ZM1315.57 661.75C1299.07 661.75 1285.5 654.233 1274.87 639.2C1264.6 623.8 1259.47 604.733 1259.47 582C1259.47 554.5 1261.3 529.383 1264.97 506.65C1268.64 483.55 1274.69 459.167 1283.12 433.5C1286.79 422.5 1291.92 414.617 1298.52 409.85C1305.12 405.083 1315.57 402.7 1329.87 402.7C1337.94 402.7 1343.44 403.983 1346.37 406.55C1349.67 409.117 1351.32 412.967 1351.32 418.1C1351.32 421.033 1349.3 430.933 1345.27 447.8C1341.6 461.367 1338.67 473.65 1336.47 484.65C1329.14 523.15 1325.47 548.817 1325.47 561.65C1325.47 569.35 1326.39 574.85 1328.22 578.15C1330.05 581.083 1332.99 582.55 1337.02 582.55C1342.52 582.55 1349.3 577.05 1357.37 566.05C1365.8 555.05 1374.6 538.367 1383.77 516C1393.3 493.633 1402.47 466.133 1411.27 433.5C1414.2 422.5 1418.6 414.617 1424.47 409.85C1430.7 405.083 1439.87 402.7 1451.97 402.7C1460.4 402.7 1466.27 403.8 1469.57 406C1472.87 407.833 1474.52 411.5 1474.52 417C1474.52 426.167 1469.94 451.283 1460.77 492.35C1450.5 539.283 1445.37 568.25 1445.37 579.25C1445.37 586.217 1446.84 591.717 1449.77 595.75C1452.7 599.417 1456.55 601.25 1461.32 601.25C1468.65 601.25 1477.27 596.85 1487.17 588.05C1497.44 578.883 1511 564.217 1527.87 544.05C1532.27 538.917 1537.22 536.35 1542.72 536.35C1547.49 536.35 1551.15 538.55 1553.72 542.95C1556.65 547.35 1558.12 553.4 1558.12 561.1C1558.12 575.767 1554.64 587.133 1547.67 595.2C1531.9 614.633 1514.85 630.583 1496.52 643.05C1478.55 655.517 1458.02 661.75 1434.92 661.75C1417.32 661.75 1404.3 654.967 1395.87 641.4C1387.8 627.833 1383.77 608.767 1383.77 584.2C1377.54 609.133 1368.19 628.383 1355.72 641.95C1343.25 655.15 1329.87 661.75 1315.57 661.75ZM1777.23 536.35C1782 536.35 1785.66 538.55 1788.23 542.95C1791.16 547.35 1792.63 553.4 1792.63 561.1C1792.63 574.667 1789.15 586.033 1782.18 595.2C1764.95 617.567 1743.5 635.167 1717.83 648C1692.53 660.833 1663.93 667.25 1632.03 667.25C1607.1 667.25 1585.46 663.583 1567.13 656.25C1548.8 648.55 1534.68 638.283 1524.78 625.45C1515.25 612.25 1510.48 597.583 1510.48 581.45C1510.48 557.25 1520.2 535.8 1539.63 517.1C1559.06 498.4 1586.93 480.433 1623.23 463.2L1533.03 465.4C1524.96 465.767 1518.73 463.017 1514.33 457.15C1510.3 450.917 1508.28 443.583 1508.28 435.15C1508.28 426.35 1510.3 418.65 1514.33 412.05C1518.73 405.083 1524.6 401.6 1531.93 401.6C1548.8 401.6 1571.35 402.883 1599.58 405.45C1605.45 405.817 1616.08 406.55 1631.48 407.65C1647.25 408.75 1660.45 409.3 1671.08 409.3C1674.75 409.3 1681.71 407.833 1691.98 404.9C1693.81 404.533 1697.3 403.617 1702.43 402.15C1707.93 400.683 1712.51 399.95 1716.18 399.95C1722.05 399.95 1726.81 402.517 1730.48 407.65C1734.51 412.783 1736.53 420.667 1736.53 431.3C1736.53 443.033 1733.78 452.2 1728.28 458.8C1722.78 465.4 1714.16 471.267 1702.43 476.4C1669.06 490.7 1641.38 506.1 1619.38 522.6C1597.38 538.733 1586.38 554.867 1586.38 571C1586.38 581.267 1591.15 589.7 1600.68 596.3C1610.21 602.9 1624.33 606.2 1643.03 606.2C1663.56 606.2 1684.28 601.067 1705.18 590.8C1726.45 580.533 1745.51 564.95 1762.38 544.05C1766.78 538.917 1771.73 536.35 1777.23 536.35ZM1819.75 366.4C1804.35 366.4 1792.8 362.917 1785.1 355.95C1777.4 348.617 1773.55 338.533 1773.55 325.7C1773.55 312.867 1778.5 302.233 1788.4 293.8C1798.67 285 1811.32 280.6 1826.35 280.6C1839.92 280.6 1850.92 283.9 1859.35 290.5C1867.78 297.1 1872 306.45 1872 318.55C1872 333.217 1867.23 344.95 1857.7 353.75C1848.17 362.183 1835.52 366.4 1819.75 366.4ZM1815.35 661.75C1791.52 661.75 1774.1 653.317 1763.1 636.45C1752.47 619.583 1747.15 597.217 1747.15 569.35C1747.15 552.85 1749.17 531.767 1753.2 506.1C1757.6 480.067 1763.1 455.867 1769.7 433.5C1773 421.767 1777.4 413.7 1782.9 409.3C1788.4 404.9 1797.2 402.7 1809.3 402.7C1828 402.7 1837.35 408.933 1837.35 421.4C1837.35 430.567 1833.87 451.833 1826.9 485.2C1818.1 525.533 1813.7 552.85 1813.7 567.15C1813.7 578.15 1815.17 586.583 1818.1 592.45C1821.03 598.317 1825.98 601.25 1832.95 601.25C1839.55 601.25 1847.8 596.667 1857.7 587.5C1867.6 578.333 1880.8 563.85 1897.3 544.05C1901.7 538.917 1906.65 536.35 1912.15 536.35C1916.92 536.35 1920.58 538.55 1923.15 542.95C1926.08 547.35 1927.55 553.4 1927.55 561.1C1927.55 575.767 1924.07 587.133 1917.1 595.2C1880.8 639.567 1846.88 661.75 1815.35 661.75ZM2195.45 536.35C2200.22 536.35 2203.89 538.55 2206.45 542.95C2209.39 547.35 2210.85 553.4 2210.85 561.1C2210.85 575.767 2207.37 587.133 2200.4 595.2C2185.37 613.533 2168.87 629.3 2150.9 642.5C2132.94 655.333 2115.15 661.75 2097.55 661.75C2069.69 661.75 2048.42 645.433 2033.75 612.8C2018.35 632.233 2004.79 645.25 1993.05 651.85C1981.69 658.45 1968.3 661.75 1952.9 661.75C1930.54 661.75 1912.02 653.5 1897.35 637C1883.05 620.133 1875.9 598.317 1875.9 571.55C1875.9 542.217 1882.14 515.083 1894.6 490.15C1907.07 464.85 1924.12 444.317 1945.75 428.55C1967.75 412.417 1992.32 402.883 2019.45 399.95C2026.42 328.817 2039.62 268.133 2059.05 217.9C2078.85 167.3 2104.7 142 2136.6 142C2152.37 142 2165.39 149.15 2175.65 163.45C2186.29 177.75 2191.6 199.383 2191.6 228.35C2191.6 269.417 2181.52 317.45 2161.35 372.45C2141.19 427.45 2114.24 483.917 2080.5 541.85C2081.97 563.117 2085.09 578.333 2089.85 587.5C2094.99 596.667 2101.4 601.25 2109.1 601.25C2119 601.25 2129.09 596.85 2139.35 588.05C2149.62 579.25 2163.37 564.583 2180.6 544.05C2185 538.917 2189.95 536.35 2195.45 536.35ZM2130.55 195.9C2123.59 195.9 2116.62 208.367 2109.65 233.3C2102.69 257.867 2096.64 290.133 2091.5 330.1C2086.74 370.067 2083.25 411.867 2081.05 455.5C2122.12 366.033 2142.65 294.167 2142.65 239.9C2142.65 225.967 2141.37 215.15 2138.8 207.45C2136.6 199.75 2133.85 195.9 2130.55 195.9ZM1972.15 606.2C1979.12 606.2 1986.09 603.45 1993.05 597.95C2000.02 592.083 2008.82 581.45 2019.45 566.05C2015.79 546.25 2013.95 524.067 2013.95 499.5C2013.95 490.7 2014.32 476.4 2015.05 456.6C1994.89 462.833 1978.02 476.4 1964.45 497.3C1951.25 517.833 1944.65 540.75 1944.65 566.05C1944.65 592.817 1953.82 606.2 1972.15 606.2ZM2446.61 490.15C2451.38 490.15 2455.04 492.533 2457.61 497.3C2460.18 502.067 2461.46 508.117 2461.46 515.45C2461.46 533.05 2456.14 543.5 2445.51 546.8C2423.51 554.5 2399.31 558.9 2372.91 560C2365.94 590.8 2352.19 615.55 2331.66 634.25C2311.13 652.583 2287.84 661.75 2261.81 661.75C2239.81 661.75 2220.93 656.433 2205.16 645.8C2189.76 635.167 2178.03 621.05 2169.96 603.45C2161.89 585.85 2157.86 566.783 2157.86 546.25C2157.86 518.383 2163.18 493.633 2173.81 472C2184.44 450 2199.11 432.95 2217.81 420.85C2236.51 408.383 2257.23 402.15 2279.96 402.15C2307.83 402.15 2330.19 411.867 2347.06 431.3C2364.29 450.367 2374.38 474.017 2377.31 502.25C2394.54 501.15 2415.08 497.483 2438.91 491.25C2441.84 490.517 2444.41 490.15 2446.61 490.15ZM2266.21 603.45C2277.94 603.45 2288.03 598.683 2296.46 589.15C2305.26 579.617 2311.13 565.867 2314.06 547.9C2302.69 540.2 2293.89 530.117 2287.66 517.65C2281.79 505.183 2278.86 491.983 2278.86 478.05C2278.86 472.183 2279.41 466.317 2280.51 460.45H2277.76C2263.09 460.45 2250.81 467.6 2240.91 481.9C2231.38 495.833 2226.61 515.633 2226.61 541.3C2226.61 561.467 2230.46 576.867 2238.16 587.5C2246.23 598.133 2255.58 603.45 2266.21 603.45ZM2519.3 661.75C2483.37 661.75 2455.32 651.667 2435.15 631.5C2415.35 610.967 2405.45 584.017 2405.45 550.65C2405.45 520.95 2411.32 494.917 2423.05 472.55C2434.79 450.183 2450 432.95 2468.7 420.85C2487.4 408.75 2507.02 402.7 2527.55 402.7C2547.72 402.7 2563.3 408.75 2574.3 420.85C2585.67 432.583 2591.35 447.8 2591.35 466.5C2591.35 481.9 2587.87 494.917 2580.9 505.55C2574.3 516.183 2565.5 521.5 2554.5 521.5C2547.54 521.5 2541.85 519.85 2537.45 516.55C2533.42 513.25 2531.4 508.667 2531.4 502.8C2531.4 500.233 2531.77 497.3 2532.5 494C2533.24 490.7 2533.79 488.317 2534.15 486.85C2535.99 481.35 2536.9 476.217 2536.9 471.45C2536.9 466.683 2535.62 463.017 2533.05 460.45C2530.85 457.883 2527.55 456.6 2523.15 456.6C2514.72 456.6 2506.84 460.45 2499.5 468.15C2492.17 475.483 2486.3 485.567 2481.9 498.4C2477.5 511.233 2475.3 525.35 2475.3 540.75C2475.3 583.283 2493.82 604.55 2530.85 604.55C2545.89 604.55 2562.02 599.6 2579.25 589.7C2596.85 579.433 2614.09 564.217 2630.95 544.05C2635.35 538.917 2640.3 536.35 2645.8 536.35C2650.57 536.35 2654.24 538.55 2656.8 542.95C2659.74 547.35 2661.2 553.4 2661.2 561.1C2661.2 575.033 2657.72 586.4 2650.75 595.2C2633.52 616.467 2612.8 632.967 2588.6 644.7C2564.77 656.067 2541.67 661.75 2519.3 661.75ZM2719.04 673.85C2699.98 673.85 2685.31 669.45 2675.04 660.65C2665.14 651.85 2660.19 641.95 2660.19 630.95C2660.19 621.417 2663.68 613.167 2670.64 606.2C2677.61 599.233 2687.88 595.75 2701.44 595.75C2706.21 595.75 2711.71 596.3 2717.94 597.4C2724.54 598.133 2729.49 598.683 2732.79 599.05C2732.43 589.517 2730.23 580.533 2726.19 572.1C2722.53 563.667 2717.76 555.6 2711.89 547.9C2706.03 539.833 2700.53 532.867 2695.39 527C2684.03 548.633 2672.66 566.6 2661.29 580.9C2650.29 595.2 2638.19 608.767 2624.99 621.6C2618.39 628.2 2611.43 631.5 2604.09 631.5C2598.23 631.5 2593.46 629.483 2589.79 625.45C2586.13 621.05 2584.29 615.733 2584.29 609.5C2584.29 602.167 2586.86 595.383 2591.99 589.15L2599.14 580.35C2619.31 555.417 2634.53 534.883 2644.79 518.75C2651.39 508.117 2657.99 495.467 2664.59 480.8C2671.56 466.133 2680.54 446.15 2691.54 420.85C2698.51 404.717 2712.99 396.65 2734.99 396.65C2745.26 396.65 2752.41 397.567 2756.44 399.4C2760.48 401.233 2762.49 404.167 2762.49 408.2C2762.49 410.4 2761.76 413.883 2760.29 418.65C2758.83 423.417 2756.81 428.183 2754.24 432.95C2747.64 446.15 2744.34 457.333 2744.34 466.5C2744.34 472 2746.18 478.05 2749.84 484.65C2753.88 491.25 2759.93 499.5 2767.99 509.4C2779.73 524.8 2788.53 538 2794.39 549C2800.63 559.633 2803.74 571.367 2803.74 584.2C2803.74 599.6 2800.08 614.267 2792.74 628.2C2785.78 641.767 2775.88 652.767 2763.04 661.2C2750.21 669.633 2735.54 673.85 2719.04 673.85Z"/>
<path fill-rule="evenodd" clip-rule="evenodd" d="M138.2 104.6L138.22 104.46C138.414 103.1 138.62 101.653 139.2 100.3C141.571 95.1634 146.381 92.7589 151.124 90.3878L151.3 90.3C163.3 84.2 176.1 79.9 188.6 75L250 50.4L324.8 20.2C338.4 14.7 351.9 8.5 365.8 3.8C374.8 0.700001 382.8 -0.499999 392.2 1.5C406.7 4.7 420.7 11.5 434.4 16.9L501.6 43L580 73.4C595.8 79.4 612.1 84.6 627.2 92.1C631.8 94.4 634.3 97.2 635.9 102.1C636.9 109 637.5 116.5 633.1 122.5C628.3 128.8 615.3 133.8 607.6 134.7C607.333 134.767 607.067 134.8 606.8 134.8C608.1 150.5 608.5 166.7 608.6 182.5C617.4 186.4 621.9 192.7 625.3 201.5C631.2 217 636.9 248.9 629.8 264.4C628.9 266.3 627.7 268.2 626.2 269.6C627.2 276.2 641.7 293.3 645.9 300.1C650.7 307.9 655.133 315.9 659.2 324.1C663.267 332.233 667 340.533 670.4 349C672.8 355.133 675.033 361.3 677.1 367.5C679.1 373.7 680.967 379.967 682.7 386.3C684.433 392.633 685.967 399 687.3 405.4C688.633 411.8 689.833 418.233 690.9 424.7C693.9 443.2 695 467.8 702.2 484.9C707.9 498.7 719.8 510.6 728.2 523C745 548.1 780.4 609.6 758.7 637.9C754 644 746.2 648.6 738.5 649.5C723.9 651.2 710.2 643.9 698.3 636.1C690.3 697.8 664.7 749.9 614.9 788.3C556.2 833.5 480.8 846.8 408.5 849.8C394.233 850.533 379.967 850.667 365.7 850.2C360.7 850.1 355.5 850.2 350.5 849.7C347.1 849.5 343.8 849.3 340.5 849C329.9 848.8 318.8 847 308.3 845.6C254.3 838.5 201 822.4 156.6 790C155.4 789.133 154.2 788.233 153 787.3C151.8 786.367 150.633 785.433 149.5 784.5C148.3 783.567 147.133 782.633 146 781.7L142.6 778.7L139.2 775.7C138.133 774.7 137.033 773.667 135.9 772.6C134.833 771.6 133.767 770.567 132.7 769.5C131.633 768.433 130.6 767.367 129.6 766.3C128.533 765.233 127.5 764.133 126.5 763C125.433 761.933 124.4 760.833 123.4 759.7C122.4 758.567 121.433 757.433 120.5 756.3C119.5 755.167 118.533 754 117.6 752.8C116.667 751.667 115.733 750.5 114.8 749.3L112 745.7L109.4 742.1C108.467 740.9 107.6 739.667 106.8 738.4C105.933 737.2 105.1 735.967 104.3 734.7C103.433 733.433 102.6 732.167 101.8 730.9C101 729.633 100.233 728.367 99.5 727.1C98.7 725.767 97.9334 724.467 97.2 723.2C96.4667 721.867 95.7334 720.567 95 719.3C94.2667 717.967 93.5667 716.633 92.9 715.3C92.1667 713.967 91.4667 712.633 90.8 711.3C90.1334 709.967 89.5 708.6 88.9 707.2C88.2334 705.867 87.6 704.5 87 703.1C86.4 701.767 85.8 700.4 85.2 699C84.6667 697.6 84.1 696.2 83.5 694.8L81.9 690.6C81.3667 689.2 80.8667 687.8 80.4 686.4C79.9334 684.933 79.4667 683.5 79 682.1C78.5334 680.7 78.0667 679.267 77.6 677.8C77.2 676.333 76.8 674.9 76.4 673.5C72.9 661.2 70.7 649 68.7 636.4C62.8 640.3 56.9001 644.5 50.3001 647.2C40.9001 651 30.2001 651.8 20.8001 647.7C12.6001 644.1 6.30005 637.1 3.20005 628.8C-8.09995 598.8 26.7001 542 43 517.4C50.1 506.7 60.0001 495.7 64.8001 483.6C68.6001 474 69.7 463.5 71.2 453.3L75.4 426.2C80.8 393.1 90.1 361.4 104.2 330.9C109.733 318.633 116.1 306.8 123.3 295.4C138.1 272.2 164.7 240.3 187.6 225.5C192.3 222.5 197 220.4 202.2 218.5C196.676 205.973 203.412 167.466 205.996 152.697L206.1 152.1C201.8 149.7 196.5 148.4 191.8 146.7C179.5 142.4 147.7 132.6 140.4 122.4C136.6 117.1 137.3 110.8 138.2 104.6ZM567.8 210.9C569.1 190.6 566.4 172.1 562.2 152.2C570.5 151 577.7 146.6 585.6 144.1C585.6 153.4 588.4 177.5 585.3 185.6C583.9 189.2 581.1 192.4 579 195.7C575.2 201.4 572.5 208.4 571 215.1C569.6 213.8 568.7 212.6 567.8 210.9Z" fill="url(#paint0_linear_12_15)"/>
<path d="M138.2 104.6C138.4 103.2 138.6 101.7 139.2 100.3C141.6 95.1 146.5 92.7 151.3 90.3C163.3 84.2 176.1 79.9 188.6 75L250 50.4L324.8 20.2C338.4 14.7 351.9 8.5 365.8 3.8C374.8 0.700001 382.8 -0.499999 392.2 1.5C406.7 4.7 420.7 11.5 434.4 16.9L501.6 43L580 73.4C595.8 79.4 612.1 84.6 627.2 92.1C631.8 94.4 634.3 97.2 635.9 102.1C636.9 109 637.5 116.5 633.1 122.5C628.3 128.8 615.3 133.8 607.6 134.7C607.333 134.767 607.067 134.8 606.8 134.8C608.1 150.5 608.5 166.7 608.6 182.5C617.4 186.4 621.9 192.7 625.3 201.5C631.2 217 636.9 248.9 629.8 264.4C628.9 266.3 627.7 268.2 626.2 269.6C623.4 270.8 620.7 273.1 617.8 274.4C610.4 277.8 600.2 277.9 592.3 276.6C585 275.4 577.8 272.9 573.4 266.6C564.5 253.9 568.5 229.4 571 215.1C572.5 208.4 575.2 201.4 579 195.7C581.1 192.4 583.9 189.2 585.3 185.6C588.4 177.5 585.6 153.4 585.6 144.1C577.7 146.6 570.5 151 562.2 152.2C557.8 153.3 553.3 155.4 549 157L523.5 166.6C497.6 176.4 471.5 185.7 445.8 195.9C430.8 201.8 401.5 215.7 386.3 215.9C373.5 216.1 356.2 208.6 344.4 203.8C313.1 191.2 281.3 179.8 249.7 168C236.4 163 220.3 155 206.7 152.2C206.5 152.133 206.3 152.1 206.1 152.1C201.8 149.7 196.5 148.4 191.8 146.7C179.5 142.4 147.7 132.6 140.4 122.4C136.6 117.1 137.3 110.8 138.2 104.6Z" fill="#1F60AF"/>
<path d="M567.8 130.3C552.5 128.8 537 125.4 521.8 122.8C485.5 116.7 449 109.9 412.5 104.8C398.1 102.8 386.4 109.8 371.6 103.8C366.2 101.6 360.4 98.1 358.2 92.6C357.1 89.8 357 86.6 358.3 83.8C360.7 78.7 367.8 75.5 373 73.8C383.6 70.4 396.5 72.6 406.2 77.6C409.7 83.3 411.2 88.1 409.6 94.8C409.4 95.6667 409.167 96.5333 408.9 97.4C420.7 100.3 433.5 100.3 445.5 101.7L526.5 111.4C539.3 112.8 554.1 112.8 566.2 117.2C572.4 119.4 576.8 123 580.2 128.6C583.1 133.3 584.8 138.6 585.6 144.1C577.7 146.6 570.5 151 562.2 152.2C557.8 153.3 553.3 155.4 549 157L523.5 166.6C497.6 176.4 471.5 185.7 445.8 195.9C430.8 201.8 401.5 215.7 386.3 215.9C373.5 216.1 356.2 208.6 344.4 203.8C313.1 191.2 281.3 179.8 249.7 168C236.4 163 220.3 155 206.7 152.2C206.5 152.133 206.3 152.1 206.1 152.1C201.8 149.7 196.5 148.4 191.8 146.7C179.5 142.4 147.7 132.6 140.4 122.4C136.6 117.1 137.3 110.8 138.2 104.6C140.3 105.1 141.6 106.4 143.4 107.5C151.2 112.5 159.4 115.7 168.1 118.8L306.4 170.2C319.667 175.333 332.933 180.533 346.2 185.8C354.6 189.2 363 192.9 371.7 195.5C379.2 197.7 382.9 198.2 390.5 196.5C399.5 194.5 408.3 190.7 416.9 187.4L457.3 172.5L526.2 147C540.2 141.8 554.7 137.5 567.8 130.3Z" fill="#16468F"/>
<path d="M406.2 77.6L526.7 90.5L559.8 94.2C567.5 95.1 575.5 95.5 583 97.6C588.3 99.2 592.6 102.2 596.1 106.5C598.5 109.4 600.5 113 602 116.5C604.1 122.5 605.6 128.5 606.8 134.8C608.1 150.5 608.5 166.7 608.6 182.5C617.4 186.4 621.9 192.7 625.3 201.5C631.2 217 636.9 248.9 629.8 264.4C628.9 266.3 627.7 268.2 626.2 269.6C623.4 270.8 620.7 273.1 617.8 274.4C610.4 277.8 600.2 277.9 592.3 276.6C585 275.4 577.8 272.9 573.4 266.6C564.5 253.9 568.5 229.4 571 215.1C572.5 208.4 575.2 201.4 579 195.7C581.1 192.4 583.9 189.2 585.3 185.6C588.4 177.5 585.6 153.4 585.6 144.1C584.8 138.6 583.1 133.3 580.2 128.6C576.8 123 572.4 119.4 566.2 117.2C554.1 112.8 539.3 112.8 526.5 111.4L445.5 101.7C433.5 100.3 420.7 100.3 408.9 97.4C409.167 96.5333 409.4 95.6667 409.6 94.8C411.2 88.1 409.7 83.3 406.2 77.6Z" fill="#F9B328"/>
<path d="M635.9 102.1C636.9 109 637.5 116.5 633.1 122.5C628.3 128.8 615.3 133.8 607.6 134.7C607.333 134.767 607.067 134.8 606.8 134.8C605.6 128.5 604.1 122.5 602 116.5C609.1 113.8 616.6 112.3 623.8 109.2C627.6 107.6 631.7 104.3 634.5 103.2C635.3 102.9 635.4 102.7 635.9 102.1Z" fill="#16468F"/>
<path d="M206.1 152.1C206.3 152.1 206.5 152.133 206.7 152.2C220.3 155 236.4 163 249.7 168C281.3 179.8 313.1 191.2 344.4 203.8C356.2 208.6 373.5 216.1 386.3 215.9C401.5 215.7 430.8 201.8 445.8 195.9C471.5 185.7 497.6 176.4 523.5 166.6L549 157C553.3 155.4 557.8 153.3 562.2 152.2C566.4 172.1 569.1 190.6 567.8 210.9C565.7 215.9 564.2 221.1 561.6 225.8C552.9 241.3 534.2 250.5 518.3 256.8C499.7 264.2 479.9 269 460.2 272.6C391.3 285 309.2 281.7 244.3 253.6C231.8 248.2 216.8 240.7 208.5 229.5C206 226 204.5 222 202.2 218.5C196.6 205.8 203.6 166.4 206.1 152.1Z" fill="#083171"/>
<path d="M412.9 444.6C413.6 420 416.2 389.5 427.2 367.3C431.2 359.1 436.8 351.7 442.9 345C462.3 323.8 488.5 310 517.5 308.9C548.9 307.6 580.8 323.4 603.3 344.5C640.7 379.5 650.7 435.3 643.3 484.2C640.8 500.8 634.7 516.7 634.5 533.7C634.3 549.6 638.2 565.5 640.9 581.1C643.167 593.1 644.5 605.2 644.9 617.4C646.5 661.9 632.6 705.2 601.8 737.9C551.8 791.2 467.6 808.4 397.4 810.3C318.6 812.5 229.9 797.7 170.6 741.5C128.9 702 118.2 646.3 125.3 591.4C127.8 572.2 133.3 553.2 133.5 533.7C133.6 520 129.2 507.1 126.3 493.8C125.033 487.867 124.033 481.9 123.3 475.9C122.567 469.9 122.133 463.867 122 457.8C121 418.6 133 377.9 160.6 349.1C182.2 326.5 213.6 310 245.3 309.4C273.4 308.9 300.4 321.4 320.4 340.7C328.4 348.4 335.5 357.2 340.5 367.2C351 388.1 354.2 419.5 354.6 443C370.2 437.4 396.5 436.9 411.6 444C412.067 444.2 412.5 444.4 412.9 444.6Z" fill="url(#paint1_linear_12_15)"/>
<path d="M354.6 443C370.2 437.4 396.5 436.9 411.6 444C412.067 444.2 412.6 444.3 413 444.5C416.1 446.05 455.4 455.8 452.3 480.7C452.233 481.167 452.167 481.6 452.1 482C452.1 480.7 452.1 479.5 451.7 478.2C448.6 480.2 446.8 483.9 443.9 486.2C434.7 493.3 421 496.8 409.6 498.7C385.4 502.6 351.7 500.1 330 488.3C325.3 485.7 322.1 481.4 317.7 478.4C317.5 478.267 317.267 478.1 317 477.9L317.1 477.2C319.3 464.4 331 454.9 342.1 449.4C345.8 447.6 350.6 446 353.9 443.5C354.167 443.3 354.4 443.133 354.6 443Z" fill="#F9B328"/>
<path d="M317 477.9C317.267 478.1 317.533 478.267 317.8 478.4C322.1 481.4 325.3 485.7 330 488.3C351.7 500.1 385.4 502.6 409.6 498.7C421 496.8 434.7 493.3 443.9 486.2C446.8 483.9 448.6 480.2 451.7 478.2C452.1 479.5 452.1 480.7 452.1 482C450.3 489.4 447.1 495.7 442.1 501.4C429.6 515.7 409.2 522.4 390.8 523.6C369.1 524.9 346.2 518.5 330 503.8C322 496.7 317.6 488.7 317 477.9Z" fill="#D97400"/>
<path d="M249.5 397.2C255.9 396.7 262.3 397.9 267.8 401.4C276.8 407 282.2 416.9 284.5 427C287.4 439.7 285.6 454.1 278.4 465.1C273.3 473.1 266 478 256.8 479.9C249.8 480.5 242.8 479.2 236.9 475.3C228.2 469.6 223.1 459.9 221.2 449.9C218.7 436.9 221.1 421.8 228.7 410.8C233.8 403.4 240.7 398.8 249.5 397.2Z" fill="#181B20"/>
<path d="M511 397.2C517.9 396.8 524.4 398.4 530 402.4C539.2 409 544.5 420.2 546.2 431.1C548.2 443.6 546 457.7 538.3 468C533.1 475 526.1 478.6 517.6 479.9C516.8 479.967 515.967 480 515.1 480C514.233 480 513.367 479.967 512.5 479.9C511.7 479.833 510.867 479.733 510 479.6C509.2 479.467 508.367 479.3 507.5 479.1C506.7 478.9 505.9 478.667 505.1 478.4C504.3 478.133 503.5 477.8 502.7 477.4C501.967 477.067 501.233 476.7 500.5 476.3C499.767 475.9 499.033 475.467 498.3 475C489.3 468.9 484.3 458.3 482.4 447.9C480.1 435.1 482.3 421.1 489.9 410.4C495 403.1 502.2 398.6 511 397.2Z" fill="#181B20"/>
<defs>
<linearGradient id="paint0_linear_12_15" x1="383.262" y1="0.518486" x2="383.262" y2="850.472" gradientUnits="userSpaceOnUse">
<stop offset="0.245192" stop-color="#212228"/>
<stop offset="1" stop-color="#16468F"/>
</linearGradient>
<linearGradient id="paint1_linear_12_15" x1="163215" y1="-84190.2" x2="162256" y2="-345788" gradientUnits="userSpaceOnUse">
<stop stop-color="#DAD7D3"/>
<stop offset="1" stop-color="white"/>
</linearGradient>
</defs>
</svg>
